<svg width="46" height="46" viewBox="0 0 46 46" fill="none" xmlns="http://www.w3.org/2000/svg">
<circle cx="23" cy="23" r="23" fill="#F8F8F8"/>
<g opacity="0.4">
<path d="M27.1904 13H18.8097C15.6062 13 13 15.6062 13 18.8097V27.1903C13 30.3938 15.6062 33 18.8097 33H27.1903C30.3938 33 33 30.3938 33 27.1904V18.8097C33 15.6062 30.3938 13 27.1904 13ZM31.4375 27.1903C31.4375 29.5322 29.5322 31.4375 27.1904 31.4375H18.8097C16.4678 31.4375 14.5625 29.5322 14.5625 27.1904V18.8097C14.5625 16.4678 16.4678 14.5625 18.8097 14.5625H27.1903C29.5322 14.5625 31.4375 16.4678 31.4375 18.8097V27.1903Z" fill="#171717"/>
<path d="M23 17.6094C20.0276 17.6094 17.6094 20.0276 17.6094 23C17.6094 25.9724 20.0276 28.3906 23 28.3906C25.9724 28.3906 28.3906 25.9724 28.3906 23C28.3906 20.0276 25.9724 17.6094 23 17.6094ZM23 26.8281C20.8892 26.8281 19.1719 25.1108 19.1719 23C19.1719 20.8892 20.8892 19.1719 23 19.1719C25.1108 19.1719 26.8281 20.8892 26.8281 23C26.8281 25.1108 25.1108 26.8281 23 26.8281Z" fill="#171717"/>
<path d="M28.4688 18.3125C28.9002 18.3125 29.25 17.9627 29.25 17.5313C29.25 17.0998 28.9002 16.75 28.4688 16.75C28.0373 16.75 27.6875 17.0998 27.6875 17.5313C27.6875 17.9627 28.0373 18.3125 28.4688 18.3125Z" fill="#171717"/>
</g>
</svg>
