<svg width="46" height="46" viewBox="0 0 46 46" fill="none" xmlns="http://www.w3.org/2000/svg">
<circle cx="23" cy="23" r="23" fill="#F8F8F8"/>
<g opacity="0.4" clip-path="url(#clip0)">
<path d="M33.0002 17.4189C32.3309 17.7125 31.6176 17.9071 30.874 18.0016C31.639 17.5449 32.2229 16.8271 32.4974 15.962C31.7841 16.3872 30.9966 16.6876 30.1574 16.8553C29.4801 16.1341 28.5149 15.6875 27.4619 15.6875C25.4189 15.6875 23.7741 17.3458 23.7741 19.3786C23.7741 19.6711 23.7989 19.9524 23.8596 20.2201C20.7917 20.0705 18.0771 18.6001 16.2535 16.3603C15.9351 16.9126 15.7484 17.5449 15.7484 18.2255C15.7484 19.5035 16.4065 20.6364 17.3875 21.2922C16.7946 21.281 16.213 21.1089 15.7202 20.8377C15.7202 20.849 15.7202 20.8636 15.7202 20.8782C15.7202 22.6715 16.9994 24.161 18.6767 24.5041C18.3764 24.5863 18.049 24.6256 17.7092 24.6256C17.473 24.6256 17.2345 24.6121 17.0106 24.5626C17.4887 26.024 18.8455 27.0984 20.4587 27.1332C19.2032 28.1154 17.6091 28.7071 15.8834 28.7071C15.5807 28.7071 15.2905 28.6936 15.0002 28.6565C16.6349 29.7106 18.5721 30.3125 20.6612 30.3125C27.4517 30.3125 31.1642 24.6875 31.1642 19.8117C31.1642 19.6486 31.1586 19.4911 31.1507 19.3348C31.8831 18.815 32.4985 18.1659 33.0002 17.4189Z" fill="#171717"/>
</g>
<defs>
<clipPath id="clip0">
<rect width="18" height="18" fill="white" transform="translate(15 14)"/>
</clipPath>
</defs>
</svg>
