<svg width="46" height="46" viewBox="0 0 46 46" fill="none" xmlns="http://www.w3.org/2000/svg">
<circle cx="23" cy="23" r="23" fill="#F8F8F8"/>
<path opacity="0.4" d="M33.8039 27.9189C33.7448 27.8198 33.379 27.025 31.6189 25.3914C29.7762 23.6808 30.0237 23.9586 32.2432 21.0007C33.5949 19.1993 34.1353 18.0992 33.9662 17.629C33.8053 17.1807 32.8111 17.2989 32.8111 17.2989L29.5053 17.3182C29.5053 17.3182 29.2606 17.2852 29.0777 17.3938C28.9003 17.5011 28.7862 17.7486 28.7862 17.7486C28.7862 17.7486 28.2622 19.143 27.5637 20.3283C26.091 22.8296 25.501 22.9616 25.2604 22.8062C24.7007 22.4446 24.841 21.3514 24.841 20.5758C24.841 18.1515 25.2081 17.1408 24.1246 16.8795C23.7643 16.7929 23.5003 16.7351 22.5803 16.7255C21.4005 16.7131 20.4008 16.7296 19.8356 17.006C19.4588 17.1903 19.1687 17.6015 19.3461 17.6248C19.5647 17.6537 20.0598 17.7582 20.3224 18.1158C20.6621 18.5764 20.6497 19.6132 20.6497 19.6132C20.6497 19.6132 20.8449 22.4666 20.1945 22.8214C19.7476 23.0647 19.1357 22.5683 17.8225 20.298C17.1501 19.1361 16.6413 17.8504 16.6413 17.8504C16.6413 17.8504 16.5436 17.6111 16.369 17.4832C16.1572 17.3278 15.8602 17.2783 15.8602 17.2783L12.7167 17.2976C12.7167 17.2976 12.2451 17.3113 12.0718 17.5162C11.9178 17.6991 12.0594 18.0759 12.0594 18.0759C12.0594 18.0759 14.5209 23.8334 17.3068 26.7363C19.8631 29.3971 22.7646 29.2224 22.7646 29.2224H24.0792C24.0792 29.2224 24.4766 29.1784 24.6787 28.9598C24.8657 28.759 24.8589 28.3823 24.8589 28.3823C24.8589 28.3823 24.8327 26.618 25.6523 26.3581C26.4595 26.1023 27.4963 28.0632 28.595 28.8182C29.4256 29.3888 30.0567 29.2637 30.0567 29.2637L32.9953 29.2224C32.9953 29.2224 34.5327 29.1276 33.8039 27.9189Z" fill="#171717"/>
</svg>
